<?xml version="1.0" encoding="UTF-8" standalone="no"?><!DOCTYPE svg PUBLIC "-//W3C//DTD SVG 1.1//EN" "http://www.w3.org/Graphics/SVG/1.1/DTD/svg11.dtd"><svg width="100%" height="100%" viewBox="0 0 488 488" version="1.1" xmlns="http://www.w3.org/2000/svg" xmlns:xlink="http://www.w3.org/1999/xlink" xml:space="preserve" style="fill-rule:evenodd;clip-rule:evenodd;stroke-linejoin:round;stroke-miterlimit:1.41421;"><g><g><path d="M468.75,371.935c0,8.693 -3.453,17.03 -9.6,23.176c-6.147,6.147 -14.484,9.6 -23.177,9.6c-83.106,0 -301.34,0 -384.446,0c-18.102,0 -32.777,-14.674 -32.777,-32.776c0,-51.499 0,-145.559 0,-145.559c5.284,1.87 10.709,3.342 16.215,4.398c7.01,1.345 14.147,2.015 21.285,2.015c7.138,0 14.275,-0.67 21.285,-2.015c7.484,-1.436 14.82,-3.64 21.856,-6.567c6.392,-2.66 12.536,-5.915 18.33,-9.705c0.807,-0.528 1.608,-1.066 2.401,-1.615l109.265,109.265c0.237,0.225 0.468,0.457 0.711,0.677c0.484,0.44 0.99,0.856 1.515,1.247c1.837,1.369 3.906,2.424 6.094,3.105c1.875,0.585 3.834,0.895 5.798,0.919c2.947,0.035 5.893,-0.579 8.582,-1.788c2.688,-1.21 5.101,-3.009 7.029,-5.238c1.284,-1.486 2.351,-3.158 3.157,-4.949c1.075,-2.389 1.681,-4.983 1.776,-7.6c0.095,-2.618 -0.322,-5.249 -1.221,-7.709c-0.674,-1.845 -1.617,-3.59 -2.79,-5.165c-0.391,-0.524 -0.808,-1.03 -1.248,-1.515c-0.22,-0.242 -0.451,-0.474 -0.677,-0.711l-109.265,-109.264c3.32,-4.801 6.266,-9.859 8.801,-15.117c2.536,-5.26 4.66,-10.718 6.344,-16.309c1.647,-5.47 2.872,-11.065 3.665,-16.722c0.729,-5.208 1.092,-10.466 1.092,-15.724c0,-7.021 -0.648,-14.041 -1.949,-20.941c-0.967,-5.126 -2.293,-10.184 -3.966,-15.125c-0.162,-0.48 -0.328,-0.958 -0.497,-1.434c0,0 194.599,0 273.635,0c18.102,0 32.777,14.674 32.777,32.776c0,61.745 0,194.625 0,256.37Zm-351.186,-289.146c0.664,1.081 1.3,2.179 1.906,3.294c3.245,5.97 5.631,12.4 7.057,19.043c1.069,4.979 1.598,10.07 1.598,15.163c0,3.524 -0.253,7.048 -0.763,10.534c-0.527,3.594 -1.328,7.147 -2.397,10.619c-1.051,3.411 -2.359,6.743 -3.909,9.958c-1.822,3.778 -3.977,7.395 -6.429,10.799c-2.616,3.631 -5.569,7.019 -8.809,10.107c-3.239,3.089 -6.764,5.878 -10.518,8.317c-3.705,2.408 -7.631,4.474 -11.716,6.159c-4.414,1.821 -9.011,3.195 -13.701,4.094c-4.567,0.876 -9.218,1.302 -13.867,1.287c-4.568,-0.014 -9.134,-0.454 -13.617,-1.329c-4.756,-0.928 -9.417,-2.344 -13.885,-4.219c-3.377,-1.417 -6.644,-3.095 -9.764,-5.012c0,0 0,-37.275 0,-66.038c0,-8.693 3.453,-17.03 9.6,-23.176c6.147,-6.147 14.484,-9.6 23.177,-9.6c28.762,0 66.037,0 66.037,0Z" style="fill:#cb1b45;"/><clipPath id="_clip1"><path d="M468.75,404.711l-450,0l0,-178.335c5.284,1.87 10.709,3.342 16.215,4.398c7.01,1.345 14.147,2.015 21.285,2.015c7.138,0 14.275,-0.67 21.285,-2.015c7.484,-1.436 14.82,-3.64 21.856,-6.567c6.392,-2.66 12.536,-5.915 18.33,-9.705c0.807,-0.528 1.608,-1.066 2.401,-1.615l109.265,109.265c0.237,0.225 0.468,0.457 0.711,0.677c0.484,0.44 0.99,0.856 1.515,1.247c1.837,1.369 3.906,2.424 6.094,3.105c1.875,0.585 3.834,0.895 5.798,0.919c2.947,0.035 5.893,-0.579 8.582,-1.788c2.688,-1.21 5.101,-3.009 7.029,-5.238c1.284,-1.486 2.351,-3.158 3.157,-4.949c1.075,-2.389 1.681,-4.983 1.776,-7.6c0.095,-2.618 -0.322,-5.249 -1.221,-7.709c-0.674,-1.845 -1.617,-3.59 -2.79,-5.165c-0.391,-0.524 -0.808,-1.03 -1.248,-1.515c-0.22,-0.242 -0.451,-0.474 -0.677,-0.711l-109.265,-109.264c3.32,-4.801 6.266,-9.859 8.801,-15.117c2.536,-5.26 4.66,-10.718 6.344,-16.309c1.647,-5.47 2.872,-11.065 3.665,-16.722c0.729,-5.208 1.092,-10.466 1.092,-15.724c0,-7.021 -0.648,-14.041 -1.949,-20.941c-0.967,-5.126 -2.293,-10.184 -3.966,-15.125c-0.162,-0.48 -0.328,-0.958 -0.497,-1.434l306.412,0l0,321.922Zm-351.186,-321.922c0.664,1.081 1.3,2.179 1.906,3.294c3.245,5.97 5.631,12.4 7.057,19.043c1.069,4.979 1.598,10.07 1.598,15.163c0,3.524 -0.253,7.048 -0.763,10.534c-0.527,3.594 -1.328,7.147 -2.397,10.619c-1.051,3.411 -2.359,6.743 -3.909,9.958c-1.822,3.778 -3.977,7.395 -6.429,10.799c-2.616,3.631 -5.569,7.019 -8.809,10.107c-3.239,3.089 -6.764,5.878 -10.518,8.317c-3.705,2.408 -7.631,4.474 -11.716,6.159c-4.414,1.821 -9.011,3.195 -13.701,4.094c-4.567,0.876 -9.218,1.302 -13.867,1.287c-4.568,-0.014 -9.134,-0.454 -13.617,-1.329c-4.756,-0.928 -9.417,-2.344 -13.885,-4.219c-3.377,-1.417 -6.644,-3.095 -9.764,-5.012l0,-98.814l98.814,0Z"/></clipPath><g clip-path="url(#_clip1)"><path d="M663.75,7.789l0,465l-525,0l0,-15l-150,0l0,-255l150,0l0,-195l525,0Z" style="fill:#86473f;"/></g></g></g></svg>